<svg xmlns="http://www.w3.org/2000/svg" xmlns:xlink="http://www.w3.org/1999/xlink" width="180" zoomAndPan="magnify" viewBox="0 0 135 32.999998" height="44" preserveAspectRatio="xMidYMid meet" version="1.0"><defs><g/><clipPath id="83b2c6c785"><path d="M 25 0.867188 L 31.5 0.867188 L 31.5 24 L 25 24 Z M 25 0.867188 " clip-rule="nonzero"/></clipPath><clipPath id="b41c655c19"><path d="M 0 22 L 6 22 L 6 32.367188 L 0 32.367188 Z M 0 22 " clip-rule="nonzero"/></clipPath><clipPath id="79652854dc"><path d="M 17 24 L 23 24 L 23 32.367188 L 17 32.367188 Z M 17 24 " clip-rule="nonzero"/></clipPath><clipPath id="0cb833999d"><path d="M 25 26 L 31.5 26 L 31.5 32.367188 L 25 32.367188 Z M 25 26 " clip-rule="nonzero"/></clipPath><clipPath id="c2e8446e90"><path d="M 8 26 L 15 26 L 15 32.367188 L 8 32.367188 Z M 8 26 " clip-rule="nonzero"/></clipPath></defs><g clip-path="url(#83b2c6c785)"><path fill="#4c88ef" d="M 31.433594 6.382812 C 31.433594 7.519531 31.457031 8.660156 31.433594 9.800781 C 31.394531 11.296875 30.515625 11.855469 29.105469 11.890625 C 26.78125 11.945312 25.855469 11.550781 25.785156 10.039062 C 25.671875 7.558594 25.695312 5.070312 25.785156 2.601562 C 25.828125 1.480469 26.554688 0.851562 27.769531 0.882812 L 29.320312 0.882812 C 30.785156 0.816406 31.386719 1.644531 31.429688 2.976562 C 31.460938 4.101562 31.433594 5.242188 31.433594 6.382812 Z M 31.4375 19.035156 L 31.4375 20.902344 C 31.4375 23.367188 30.964844 23.824219 28.550781 23.820312 C 26.238281 23.820312 25.730469 23.316406 25.71875 20.992188 C 25.71875 19.488281 25.691406 17.984375 25.71875 16.480469 C 25.769531 14.820312 26.371094 14.242188 27.988281 14.210938 C 31.121094 14.140625 31.425781 14.441406 31.429688 17.632812 Z M 31.4375 19.035156 " fill-opacity="1" fill-rule="nonzero"/></g><g clip-path="url(#b41c655c19)"><path fill="#e54c41" d="M 5.6875 27.417969 C 5.6875 27.933594 5.65625 28.453125 5.6875 28.96875 C 5.964844 32.515625 4.511719 32.421875 1.34375 32.113281 C 0.378906 32.019531 0.03125 31.148438 0.03125 30.257812 C 0 28.398438 0 26.535156 0.0351562 24.679688 C 0.0742188 23.320312 0.804688 22.589844 2.222656 22.652344 L 3.464844 22.652344 C 5.097656 22.691406 5.652344 23.246094 5.679688 24.933594 C 5.6875 25.761719 5.6875 26.589844 5.6875 27.417969 Z M 5.6875 27.417969 " fill-opacity="1" fill-rule="nonzero"/></g><path fill="#f9be15" d="M 8.574219 20.117188 L 8.574219 19.03125 C 8.574219 16.457031 9.011719 16.027344 11.554688 16.046875 C 13.777344 16.046875 14.265625 16.550781 14.289062 18.820312 L 14.289062 22.242188 C 14.265625 23.621094 13.609375 24.371094 12.175781 24.335938 L 10.777344 24.335938 C 9.195312 24.277344 8.652344 23.738281 8.589844 22.148438 C 8.554688 21.429688 8.574219 20.773438 8.574219 20.117188 Z M 8.574219 20.117188 " fill-opacity="1" fill-rule="nonzero"/><g clip-path="url(#79652854dc)"><path fill="#3fa95b" d="M 22.8125 28.195312 L 22.8125 29.4375 C 22.8125 31.828125 22.40625 32.222656 20.003906 32.222656 C 17.601562 32.222656 17.222656 31.832031 17.214844 29.414062 C 17.214844 28.273438 17.195312 27.132812 17.214844 25.996094 C 17.25 24.757812 17.871094 24.070312 19.15625 24.082031 L 20.558594 24.082031 C 22.253906 24.117188 22.746094 24.609375 22.792969 26.328125 C 22.824219 26.949219 22.8125 27.554688 22.8125 28.195312 Z M 22.8125 28.195312 " fill-opacity="1" fill-rule="nonzero"/></g><g clip-path="url(#0cb833999d)"><path fill="#4c88ef" d="M 31.433594 29.152344 C 31.433594 31.839844 31.074219 32.214844 28.582031 32.214844 C 26.089844 32.214844 25.714844 31.777344 25.71875 29.152344 C 25.71875 26.589844 26.179688 26.121094 28.664062 26.125 C 30.996094 26.125 31.433594 26.601562 31.433594 29.152344 Z M 31.433594 29.152344 " fill-opacity="1" fill-rule="nonzero"/></g><g clip-path="url(#c2e8446e90)"><path fill="#f8be18" d="M 11.476562 26.550781 C 13.816406 26.550781 14.285156 27.023438 14.285156 29.382812 C 14.285156 31.738281 13.710938 32.367188 11.375 32.339844 C 9.039062 32.3125 8.5625 31.785156 8.5625 29.46875 C 8.570312 27.054688 9.078125 26.546875 11.476562 26.550781 Z M 11.476562 26.550781 " fill-opacity="1" fill-rule="nonzero"/></g><path fill="#3fa95b" d="M 22.816406 18.71875 C 22.816406 21.414062 20.464844 22.75 18.144531 21.484375 C 17.609375 21.179688 17.320312 20.722656 17.269531 20.109375 C 17.210938 19.703125 17.269531 19.285156 17.222656 18.871094 C 16.980469 15.183594 18.507812 15.371094 21.535156 15.742188 C 23.140625 15.945312 22.75 17.617188 22.816406 18.71875 Z M 20.085938 7.671875 C 22.433594 7.671875 22.828125 8.085938 22.820312 10.523438 C 22.820312 12.804688 22.382812 13.253906 20.097656 13.253906 C 17.605469 13.253906 17.207031 12.863281 17.214844 10.386719 C 17.21875 8.050781 17.621094 7.671875 20.085938 7.671875 Z M 20.085938 7.671875 " fill-opacity="1" fill-rule="nonzero"/><g fill="white" fill-opacity="1"><g transform="translate(46.038885, 16.95002)"><g><path d="M 5.53125 0.28125 C 5.03125 0.28125 4.5 0.203125 3.9375 0.046875 C 3.382812 -0.109375 2.875 -0.320312 2.40625 -0.59375 L 2.390625 -0.59375 L 2.453125 0.15625 L 1.0625 0.15625 L 1.0625 -4.046875 L 2.25 -4.046875 C 2.40625 -3.066406 2.78125 -2.316406 3.375 -1.796875 C 3.976562 -1.273438 4.710938 -1.015625 5.578125 -1.015625 C 6.203125 -1.015625 6.71875 -1.175781 7.125 -1.5 C 7.53125 -1.832031 7.734375 -2.234375 7.734375 -2.703125 C 7.734375 -3.085938 7.597656 -3.414062 7.328125 -3.6875 C 7.066406 -3.96875 6.769531 -4.1875 6.4375 -4.34375 C 6.101562 -4.5 5.578125 -4.71875 4.859375 -5 C 3.535156 -5.53125 2.523438 -6.128906 1.828125 -6.796875 C 1.128906 -7.472656 0.78125 -8.359375 0.78125 -9.453125 C 0.78125 -10.003906 0.914062 -10.539062 1.1875 -11.0625 C 1.46875 -11.582031 1.921875 -12.015625 2.546875 -12.359375 C 3.171875 -12.710938 3.984375 -12.890625 4.984375 -12.890625 C 5.503906 -12.890625 6.046875 -12.8125 6.609375 -12.65625 C 7.171875 -12.507812 7.640625 -12.300781 8.015625 -12.03125 L 8.03125 -12.03125 L 7.953125 -12.765625 L 9.359375 -12.765625 L 9.359375 -8.5625 L 8.171875 -8.5625 C 8.015625 -9.550781 7.671875 -10.300781 7.140625 -10.8125 C 6.609375 -11.332031 5.925781 -11.59375 5.09375 -11.59375 C 4.550781 -11.59375 4.082031 -11.441406 3.6875 -11.140625 C 3.300781 -10.847656 3.109375 -10.484375 3.109375 -10.046875 C 3.109375 -9.515625 3.332031 -9.066406 3.78125 -8.703125 C 4.226562 -8.347656 4.976562 -7.957031 6.03125 -7.53125 C 7.238281 -7.039062 8.222656 -6.476562 8.984375 -5.84375 C 9.753906 -5.21875 10.140625 -4.382812 10.140625 -3.34375 C 10.140625 -2.632812 9.945312 -2.003906 9.5625 -1.453125 C 9.175781 -0.898438 8.632812 -0.472656 7.9375 -0.171875 C 7.238281 0.128906 6.4375 0.28125 5.53125 0.28125 Z M 5.53125 0.28125 "/></g></g></g><g fill="white" fill-opacity="1"><g transform="translate(56.795907, 16.95002)"><g><path d="M 0.453125 -1.171875 C 0.910156 -1.171875 1.203125 -1.296875 1.328125 -1.546875 C 1.460938 -1.796875 1.53125 -2.203125 1.53125 -2.765625 L 1.53125 -10.171875 C 1.53125 -10.742188 1.554688 -11.265625 1.609375 -11.734375 L 0.34375 -11.6875 L 0.34375 -13.046875 C 1.09375 -13.046875 1.703125 -13.097656 2.171875 -13.203125 C 2.640625 -13.316406 2.945312 -13.445312 3.09375 -13.59375 L 4.09375 -13.59375 L 4.09375 -5.375 L 4.953125 -5.375 L 6.25 -6.875 C 6.613281 -7.289062 6.847656 -7.539062 6.953125 -7.625 L 6.953125 -7.65625 L 6 -7.625 L 6 -9 L 10.046875 -9 L 10.046875 -7.84375 C 9.472656 -7.789062 8.984375 -7.632812 8.578125 -7.375 C 8.171875 -7.113281 7.804688 -6.796875 7.484375 -6.421875 L 6.34375 -5.140625 L 6.34375 -5.125 C 6.53125 -5.03125 6.707031 -4.898438 6.875 -4.734375 C 7.050781 -4.578125 7.257812 -4.335938 7.5 -4.015625 L 8.71875 -2.4375 C 9.03125 -2.050781 9.304688 -1.742188 9.546875 -1.515625 C 9.785156 -1.285156 10.0625 -1.171875 10.375 -1.171875 L 10.375 0 L 8.296875 0 C 7.941406 0 7.625 -0.117188 7.34375 -0.359375 C 7.070312 -0.597656 6.722656 -1 6.296875 -1.5625 C 5.835938 -2.175781 5.398438 -2.800781 4.984375 -3.4375 L 4.5 -4.125 L 4.09375 -4.109375 L 4.09375 -2.890625 C 4.09375 -2.316406 4.066406 -1.789062 4.015625 -1.3125 C 4.398438 -1.351562 4.789062 -1.375 5.1875 -1.375 L 5.1875 0 L 0.453125 0 Z M 0.453125 -1.171875 "/></g></g></g><g fill="white" fill-opacity="1"><g transform="translate(67.480968, 16.95002)"><g><path d="M 3.28125 -10.78125 C 2.863281 -10.78125 2.523438 -10.921875 2.265625 -11.203125 C 2.003906 -11.484375 1.875 -11.828125 1.875 -12.234375 C 1.875 -12.648438 2.007812 -13.003906 2.28125 -13.296875 C 2.5625 -13.585938 2.890625 -13.734375 3.265625 -13.734375 C 3.640625 -13.734375 3.957031 -13.585938 4.21875 -13.296875 C 4.476562 -13.015625 4.609375 -12.660156 4.609375 -12.234375 C 4.609375 -11.816406 4.484375 -11.46875 4.234375 -11.1875 C 3.992188 -10.914062 3.675781 -10.78125 3.28125 -10.78125 Z M 0.734375 -1.171875 C 1.191406 -1.171875 1.484375 -1.296875 1.609375 -1.546875 C 1.734375 -1.796875 1.796875 -2.203125 1.796875 -2.765625 L 1.796875 -5.765625 C 1.796875 -6.328125 1.820312 -6.847656 1.875 -7.328125 L 0.609375 -7.265625 L 0.609375 -8.640625 C 1.367188 -8.640625 1.984375 -8.691406 2.453125 -8.796875 C 2.921875 -8.910156 3.234375 -9.039062 3.390625 -9.1875 L 4.359375 -9.1875 L 4.359375 -2.890625 C 4.359375 -2.316406 4.332031 -1.789062 4.28125 -1.3125 C 4.664062 -1.351562 5.054688 -1.375 5.453125 -1.375 L 5.453125 0 L 0.734375 0 Z M 0.734375 -1.171875 "/></g></g></g><g fill="white" fill-opacity="1"><g transform="translate(73.36315, 16.95002)"><g><path d="M 0.453125 -1.171875 C 0.773438 -1.171875 1.007812 -1.234375 1.15625 -1.359375 C 1.3125 -1.484375 1.410156 -1.65625 1.453125 -1.875 C 1.492188 -2.09375 1.515625 -2.390625 1.515625 -2.765625 L 1.515625 -10.171875 C 1.515625 -10.742188 1.535156 -11.265625 1.578125 -11.734375 L 0.328125 -11.6875 L 0.328125 -13.046875 C 1.078125 -13.046875 1.6875 -13.097656 2.15625 -13.203125 C 2.625 -13.316406 2.9375 -13.445312 3.09375 -13.59375 L 4.0625 -13.59375 L 4.0625 -2.890625 C 4.0625 -2.316406 4.039062 -1.789062 4 -1.3125 C 4.394531 -1.351562 4.785156 -1.375 5.171875 -1.375 L 5.171875 0 L 0.453125 0 Z M 0.453125 -1.171875 "/></g></g></g><g fill="white" fill-opacity="1"><g transform="translate(78.975504, 16.95002)"><g><path d="M 0.453125 -1.171875 C 0.773438 -1.171875 1.007812 -1.234375 1.15625 -1.359375 C 1.3125 -1.484375 1.410156 -1.65625 1.453125 -1.875 C 1.492188 -2.09375 1.515625 -2.390625 1.515625 -2.765625 L 1.515625 -10.171875 C 1.515625 -10.742188 1.535156 -11.265625 1.578125 -11.734375 L 0.328125 -11.6875 L 0.328125 -13.046875 C 1.078125 -13.046875 1.6875 -13.097656 2.15625 -13.203125 C 2.625 -13.316406 2.9375 -13.445312 3.09375 -13.59375 L 4.0625 -13.59375 L 4.0625 -2.890625 C 4.0625 -2.316406 4.039062 -1.789062 4 -1.3125 C 4.394531 -1.351562 4.785156 -1.375 5.171875 -1.375 L 5.171875 0 L 0.453125 0 Z M 0.453125 -1.171875 "/></g></g></g><g fill="white" fill-opacity="1"><g transform="translate(84.587858, 16.95002)"><g><path d="M 6.796875 0.28125 C 5.585938 0.28125 4.515625 0 3.578125 -0.5625 C 2.640625 -1.125 1.910156 -1.894531 1.390625 -2.875 C 0.878906 -3.851562 0.625 -4.9375 0.625 -6.125 C 0.625 -7.257812 0.867188 -8.34375 1.359375 -9.375 C 1.847656 -10.414062 2.566406 -11.257812 3.515625 -11.90625 C 4.460938 -12.5625 5.601562 -12.890625 6.9375 -12.890625 C 7.414062 -12.890625 7.929688 -12.8125 8.484375 -12.65625 C 9.046875 -12.5 9.5625 -12.28125 10.03125 -12 L 10.046875 -12 L 9.96875 -12.765625 L 11.359375 -12.765625 L 11.359375 -8.5625 L 10.1875 -8.5625 C 9.863281 -10.5625 8.851562 -11.570312 7.15625 -11.59375 C 6.351562 -11.59375 5.671875 -11.351562 5.109375 -10.875 C 4.554688 -10.40625 4.140625 -9.78125 3.859375 -9 C 3.585938 -8.21875 3.453125 -7.378906 3.453125 -6.484375 C 3.453125 -5.453125 3.601562 -4.53125 3.90625 -3.71875 C 4.207031 -2.914062 4.640625 -2.289062 5.203125 -1.84375 C 5.765625 -1.394531 6.441406 -1.171875 7.234375 -1.171875 C 8.003906 -1.171875 8.757812 -1.367188 9.5 -1.765625 C 10.238281 -2.160156 10.859375 -2.703125 11.359375 -3.390625 L 12.21875 -2.59375 C 11.425781 -1.5 10.554688 -0.742188 9.609375 -0.328125 C 8.660156 0.078125 7.722656 0.28125 6.796875 0.28125 Z M 6.796875 0.28125 "/></g></g></g><g fill="white" fill-opacity="1"><g transform="translate(96.963829, 16.95002)"><g><path d="M 0.734375 -1.171875 C 1.191406 -1.171875 1.484375 -1.296875 1.609375 -1.546875 C 1.734375 -1.796875 1.796875 -2.203125 1.796875 -2.765625 L 1.796875 -5.796875 C 1.796875 -6.335938 1.820312 -6.847656 1.875 -7.328125 L 0.609375 -7.265625 L 0.609375 -8.640625 C 1.367188 -8.640625 1.984375 -8.691406 2.453125 -8.796875 C 2.921875 -8.910156 3.234375 -9.039062 3.390625 -9.1875 L 4.265625 -9.1875 C 4.285156 -9 4.300781 -8.757812 4.3125 -8.46875 C 4.332031 -8.1875 4.34375 -7.90625 4.34375 -7.625 L 4.375 -7.625 C 5.1875 -8.726562 6.050781 -9.28125 6.96875 -9.28125 C 7.425781 -9.28125 7.800781 -9.15625 8.09375 -8.90625 C 8.382812 -8.65625 8.53125 -8.285156 8.53125 -7.796875 C 8.53125 -7.484375 8.425781 -7.191406 8.21875 -6.921875 C 8.019531 -6.660156 7.71875 -6.53125 7.3125 -6.53125 C 7.007812 -6.53125 6.738281 -6.609375 6.5 -6.765625 C 6.269531 -6.921875 6.140625 -7.191406 6.109375 -7.578125 C 5.765625 -7.578125 5.414062 -7.378906 5.0625 -6.984375 C 4.707031 -6.597656 4.472656 -6.210938 4.359375 -5.828125 L 4.359375 -2.890625 C 4.359375 -2.316406 4.332031 -1.789062 4.28125 -1.3125 C 4.664062 -1.351562 5.054688 -1.375 5.453125 -1.375 L 5.453125 0 L 0.734375 0 Z M 0.734375 -1.171875 "/></g></g></g><g fill="white" fill-opacity="1"><g transform="translate(105.598224, 16.95002)"><g><path d="M 2.984375 0.28125 C 2.234375 0.28125 1.640625 0.0546875 1.203125 -0.390625 C 0.765625 -0.835938 0.546875 -1.410156 0.546875 -2.109375 C 0.546875 -3.160156 1.035156 -3.957031 2.015625 -4.5 C 2.992188 -5.050781 4.175781 -5.359375 5.5625 -5.421875 L 5.5625 -6.359375 C 5.5625 -7.441406 5.15625 -7.984375 4.34375 -7.984375 C 3.8125 -7.984375 3.378906 -7.816406 3.046875 -7.484375 C 3.191406 -7.316406 3.265625 -7.085938 3.265625 -6.796875 C 3.265625 -6.515625 3.160156 -6.257812 2.953125 -6.03125 C 2.753906 -5.800781 2.46875 -5.6875 2.09375 -5.6875 C 1.726562 -5.6875 1.441406 -5.800781 1.234375 -6.03125 C 1.035156 -6.269531 0.9375 -6.5625 0.9375 -6.90625 C 0.9375 -7.375 1.101562 -7.785156 1.4375 -8.140625 C 1.769531 -8.503906 2.226562 -8.785156 2.8125 -8.984375 C 3.394531 -9.179688 4.035156 -9.28125 4.734375 -9.28125 C 6.953125 -9.28125 8.0625 -8.132812 8.0625 -5.84375 L 8.046875 -2.890625 C 8.046875 -2.316406 8.019531 -1.789062 7.96875 -1.3125 C 8.363281 -1.351562 8.753906 -1.375 9.140625 -1.375 L 9.140625 0 L 5.734375 0 C 5.710938 -0.15625 5.691406 -0.429688 5.671875 -0.828125 L 5.65625 -0.828125 C 4.914062 -0.0859375 4.023438 0.28125 2.984375 0.28125 Z M 4.125 -1.46875 C 4.664062 -1.46875 5.140625 -1.6875 5.546875 -2.125 L 5.546875 -4.140625 C 4.835938 -4.066406 4.25 -3.882812 3.78125 -3.59375 C 3.320312 -3.3125 3.09375 -2.925781 3.09375 -2.4375 C 3.09375 -2.101562 3.191406 -1.859375 3.390625 -1.703125 C 3.585938 -1.546875 3.832031 -1.46875 4.125 -1.46875 Z M 4.125 -1.46875 "/></g></g></g><g fill="white" fill-opacity="1"><g transform="translate(115.024104, 16.95002)"><g><path d="M 0.78125 -1.171875 C 1.226562 -1.171875 1.519531 -1.296875 1.65625 -1.546875 C 1.789062 -1.796875 1.859375 -2.203125 1.859375 -2.765625 L 1.859375 -7.53125 L 0.546875 -7.5 L 0.546875 -9 L 1.859375 -9 L 1.859375 -9.515625 C 1.859375 -10.921875 2.160156 -11.953125 2.765625 -12.609375 C 3.378906 -13.265625 4.25 -13.59375 5.375 -13.59375 C 6.15625 -13.59375 6.734375 -13.4375 7.109375 -13.125 C 7.484375 -12.8125 7.671875 -12.4375 7.671875 -12 C 7.671875 -11.664062 7.566406 -11.378906 7.359375 -11.140625 C 7.160156 -10.910156 6.878906 -10.796875 6.515625 -10.796875 C 6.179688 -10.796875 5.921875 -10.890625 5.734375 -11.078125 C 5.546875 -11.273438 5.453125 -11.523438 5.453125 -11.828125 C 5.453125 -11.984375 5.460938 -12.101562 5.484375 -12.1875 C 5.390625 -12.28125 5.253906 -12.328125 5.078125 -12.328125 C 4.597656 -12.316406 4.359375 -11.945312 4.359375 -11.21875 L 4.359375 -9 L 6.375 -9 L 6.375 -7.609375 L 4.375 -7.5625 L 4.390625 -2.9375 C 4.390625 -2.332031 4.363281 -1.789062 4.3125 -1.3125 C 4.707031 -1.351562 5.128906 -1.375 5.578125 -1.375 L 5.578125 0 L 0.78125 0 Z M 0.78125 -1.171875 "/></g></g></g><g fill="white" fill-opacity="1"><g transform="translate(121.661791, 16.95002)"><g><path d="M 4.296875 0.28125 C 2.429688 0.28125 1.5 -0.867188 1.5 -3.171875 L 1.53125 -7.5 L 0.3125 -7.5 L 0.3125 -9 C 0.6875 -9 1.046875 -9.117188 1.390625 -9.359375 C 1.734375 -9.597656 2.023438 -9.890625 2.265625 -10.234375 C 2.503906 -10.585938 2.671875 -10.925781 2.765625 -11.25 L 4.109375 -11.25 L 4.09375 -9 L 6.375 -9 L 6.375 -7.609375 L 4.09375 -7.5625 L 4.0625 -3.125 C 4.0625 -1.96875 4.421875 -1.390625 5.140625 -1.390625 C 5.722656 -1.390625 6.269531 -1.75 6.78125 -2.46875 L 7.65625 -1.65625 C 7.082031 -0.820312 6.515625 -0.289062 5.953125 -0.0625 C 5.390625 0.164062 4.835938 0.28125 4.296875 0.28125 Z M 4.296875 0.28125 "/></g></g></g><g fill="white" fill-opacity="1"><g transform="translate(53.288971, 30.249993)"><g><path d="M 5.671875 -7.015625 L 5.671875 -5.65625 L 3.8125 -5.65625 L 3.8125 0 L 2.09375 0 L 2.09375 -5.65625 L 0.234375 -5.65625 L 0.234375 -7.015625 Z M 5.671875 -7.015625 "/></g></g></g><g fill="white" fill-opacity="1"><g transform="translate(59.19664, 30.249993)"><g><path d="M 2.328125 -5.65625 L 2.328125 -4.234375 L 4.625 -4.234375 L 4.625 -2.90625 L 2.328125 -2.90625 L 2.328125 -1.375 L 4.921875 -1.375 L 4.921875 0 L 0.625 0 L 0.625 -7.015625 L 4.921875 -7.015625 L 4.921875 -5.65625 Z M 2.328125 -5.65625 "/></g></g></g><g fill="white" fill-opacity="1"><g transform="translate(64.604511, 30.249993)"><g><path d="M 0.328125 -3.515625 C 0.328125 -4.210938 0.476562 -4.832031 0.78125 -5.375 C 1.082031 -5.914062 1.5 -6.335938 2.03125 -6.640625 C 2.570312 -6.941406 3.179688 -7.09375 3.859375 -7.09375 C 4.691406 -7.09375 5.40625 -6.875 6 -6.4375 C 6.59375 -6 6.988281 -5.398438 7.1875 -4.640625 L 5.3125 -4.640625 C 5.164062 -4.929688 4.960938 -5.15625 4.703125 -5.3125 C 4.453125 -5.46875 4.164062 -5.546875 3.84375 -5.546875 C 3.3125 -5.546875 2.878906 -5.359375 2.546875 -4.984375 C 2.222656 -4.617188 2.0625 -4.128906 2.0625 -3.515625 C 2.0625 -2.898438 2.222656 -2.410156 2.546875 -2.046875 C 2.878906 -1.679688 3.3125 -1.5 3.84375 -1.5 C 4.164062 -1.5 4.453125 -1.570312 4.703125 -1.71875 C 4.960938 -1.875 5.164062 -2.101562 5.3125 -2.40625 L 7.1875 -2.40625 C 6.988281 -1.644531 6.59375 -1.046875 6 -0.609375 C 5.40625 -0.171875 4.691406 0.046875 3.859375 0.046875 C 3.179688 0.046875 2.570312 -0.101562 2.03125 -0.40625 C 1.5 -0.707031 1.082031 -1.128906 0.78125 -1.671875 C 0.476562 -2.210938 0.328125 -2.828125 0.328125 -3.515625 Z M 0.328125 -3.515625 "/></g></g></g><g fill="white" fill-opacity="1"><g transform="translate(72.221503, 30.249993)"><g><path d="M 6.703125 -7.015625 L 6.703125 0 L 4.984375 0 L 4.984375 -2.890625 L 2.328125 -2.890625 L 2.328125 0 L 0.625 0 L 0.625 -7.015625 L 2.328125 -7.015625 L 2.328125 -4.265625 L 4.984375 -4.265625 L 4.984375 -7.015625 Z M 6.703125 -7.015625 "/></g></g></g><g fill="white" fill-opacity="1"><g transform="translate(79.528623, 30.249993)"><g><path d="M 6.90625 0 L 5.1875 0 L 2.328125 -4.328125 L 2.328125 0 L 0.625 0 L 0.625 -7.015625 L 2.328125 -7.015625 L 5.1875 -2.671875 L 5.1875 -7.015625 L 6.90625 -7.015625 Z M 6.90625 0 "/></g></g></g><g fill="white" fill-opacity="1"><g transform="translate(87.045663, 30.249993)"><g><path d="M 3.9375 0.0625 C 3.28125 0.0625 2.675781 -0.0859375 2.125 -0.390625 C 1.570312 -0.691406 1.132812 -1.117188 0.8125 -1.671875 C 0.488281 -2.222656 0.328125 -2.84375 0.328125 -3.53125 C 0.328125 -4.21875 0.488281 -4.832031 0.8125 -5.375 C 1.132812 -5.925781 1.570312 -6.351562 2.125 -6.65625 C 2.675781 -6.96875 3.28125 -7.125 3.9375 -7.125 C 4.601562 -7.125 5.207031 -6.96875 5.75 -6.65625 C 6.300781 -6.351562 6.734375 -5.925781 7.046875 -5.375 C 7.367188 -4.832031 7.53125 -4.21875 7.53125 -3.53125 C 7.53125 -2.84375 7.367188 -2.222656 7.046875 -1.671875 C 6.722656 -1.117188 6.289062 -0.691406 5.75 -0.390625 C 5.207031 -0.0859375 4.601562 0.0625 3.9375 0.0625 Z M 3.9375 -1.484375 C 4.5 -1.484375 4.945312 -1.671875 5.28125 -2.046875 C 5.625 -2.421875 5.796875 -2.914062 5.796875 -3.53125 C 5.796875 -4.144531 5.625 -4.632812 5.28125 -5 C 4.945312 -5.375 4.5 -5.5625 3.9375 -5.5625 C 3.375 -5.5625 2.921875 -5.378906 2.578125 -5.015625 C 2.242188 -4.648438 2.078125 -4.15625 2.078125 -3.53125 C 2.078125 -2.90625 2.242188 -2.40625 2.578125 -2.03125 C 2.921875 -1.664062 3.375 -1.484375 3.9375 -1.484375 Z M 3.9375 -1.484375 "/></g></g></g><g fill="white" fill-opacity="1"><g transform="translate(94.902557, 30.249993)"><g><path d="M 2.328125 -1.3125 L 4.5625 -1.3125 L 4.5625 0 L 0.625 0 L 0.625 -7.015625 L 2.328125 -7.015625 Z M 2.328125 -1.3125 "/></g></g></g><g fill="white" fill-opacity="1"><g transform="translate(99.67068, 30.249993)"><g><path d="M 3.9375 0.0625 C 3.28125 0.0625 2.675781 -0.0859375 2.125 -0.390625 C 1.570312 -0.691406 1.132812 -1.117188 0.8125 -1.671875 C 0.488281 -2.222656 0.328125 -2.84375 0.328125 -3.53125 C 0.328125 -4.21875 0.488281 -4.832031 0.8125 -5.375 C 1.132812 -5.925781 1.570312 -6.351562 2.125 -6.65625 C 2.675781 -6.96875 3.28125 -7.125 3.9375 -7.125 C 4.601562 -7.125 5.207031 -6.96875 5.75 -6.65625 C 6.300781 -6.351562 6.734375 -5.925781 7.046875 -5.375 C 7.367188 -4.832031 7.53125 -4.21875 7.53125 -3.53125 C 7.53125 -2.84375 7.367188 -2.222656 7.046875 -1.671875 C 6.722656 -1.117188 6.289062 -0.691406 5.75 -0.390625 C 5.207031 -0.0859375 4.601562 0.0625 3.9375 0.0625 Z M 3.9375 -1.484375 C 4.5 -1.484375 4.945312 -1.671875 5.28125 -2.046875 C 5.625 -2.421875 5.796875 -2.914062 5.796875 -3.53125 C 5.796875 -4.144531 5.625 -4.632812 5.28125 -5 C 4.945312 -5.375 4.5 -5.5625 3.9375 -5.5625 C 3.375 -5.5625 2.921875 -5.378906 2.578125 -5.015625 C 2.242188 -4.648438 2.078125 -4.15625 2.078125 -3.53125 C 2.078125 -2.90625 2.242188 -2.40625 2.578125 -2.03125 C 2.921875 -1.664062 3.375 -1.484375 3.9375 -1.484375 Z M 3.9375 -1.484375 "/></g></g></g><g fill="white" fill-opacity="1"><g transform="translate(107.527575, 30.249993)"><g><path d="M 5.28125 -4.796875 C 5.15625 -5.035156 4.972656 -5.210938 4.734375 -5.328125 C 4.492188 -5.453125 4.21875 -5.515625 3.90625 -5.515625 C 3.34375 -5.515625 2.894531 -5.332031 2.5625 -4.96875 C 2.226562 -4.613281 2.0625 -4.128906 2.0625 -3.515625 C 2.0625 -2.867188 2.238281 -2.363281 2.59375 -2 C 2.945312 -1.632812 3.429688 -1.453125 4.046875 -1.453125 C 4.460938 -1.453125 4.816406 -1.554688 5.109375 -1.765625 C 5.398438 -1.984375 5.609375 -2.296875 5.734375 -2.703125 L 3.5625 -2.703125 L 3.5625 -3.953125 L 7.296875 -3.953125 L 7.296875 -2.375 C 7.160156 -1.945312 6.941406 -1.546875 6.640625 -1.171875 C 6.335938 -0.804688 5.953125 -0.507812 5.484375 -0.28125 C 5.023438 -0.0625 4.5 0.046875 3.90625 0.046875 C 3.21875 0.046875 2.597656 -0.101562 2.046875 -0.40625 C 1.503906 -0.707031 1.082031 -1.128906 0.78125 -1.671875 C 0.476562 -2.210938 0.328125 -2.828125 0.328125 -3.515625 C 0.328125 -4.210938 0.476562 -4.832031 0.78125 -5.375 C 1.082031 -5.914062 1.503906 -6.335938 2.046875 -6.640625 C 2.585938 -6.941406 3.207031 -7.09375 3.90625 -7.09375 C 4.738281 -7.09375 5.441406 -6.890625 6.015625 -6.484375 C 6.597656 -6.078125 6.984375 -5.515625 7.171875 -4.796875 Z M 5.28125 -4.796875 "/></g></g></g><g fill="white" fill-opacity="1"><g transform="translate(115.144567, 30.249993)"><g><path d="M 6.640625 -7.015625 L 4.203125 -2.3125 L 4.203125 0 L 2.5 0 L 2.5 -2.3125 L 0.0625 -7.015625 L 2.015625 -7.015625 L 3.375 -4.078125 L 4.71875 -7.015625 Z M 6.640625 -7.015625 "/></g></g></g></svg>